<svg xmlns="http://www.w3.org/2000/svg" xmlns:xlink="http://www.w3.org/1999/xlink" width="23" height="20" viewBox="0 0 23 20"><defs><path id="dphja" d="M4.6 19.66A4.01 4.01 0 0 1 .6 15.7a3.9 3.9 0 0 1 1.18-2.8L13.24 1.6a5.43 5.43 0 0 1 7.6 0 5.21 5.21 0 0 1 0 7.47l-8.62 8.49-.89-.88 8.61-8.48a4 4 0 0 0 0-5.73 4.15 4.15 0 0 0-5.8 0L2.64 13.8a2.67 2.67 0 0 0 0 3.83 2.79 2.79 0 0 0 3.9 0l8.6-8.48c.55-.54.55-1.42 0-1.95a1.42 1.42 0 0 0-1.97 0l-5.74 5.65-.9-.87L12.3 6.3a2.69 2.69 0 0 1 3.76 0 2.6 2.6 0 0 1 0 3.7L7.44 18.5a4.01 4.01 0 0 1-2.84 1.16"/></defs><g><g><use fill="#9e9e9e" xlink:href="#dphja"/></g></g></svg>