<svg xmlns="http://www.w3.org/2000/svg" xmlns:xlink="http://www.w3.org/1999/xlink" width="22" height="20" viewBox="0 0 22 20"><defs><path id="4xwda" d="M10.62 19.44C2.3 12.45.05 10 .05 6 .05 2.72 2.65.05 5.83.05 8.49.05 10 1.61 11 2.78 12.01 1.61 13.52.05 16.18.05A5.87 5.87 0 0 1 21.96 6c0 4-2.25 6.45-10.58 13.44l-.38.32zM1.25 6c0 3.42 2.1 5.71 9.75 12.16C18.67 11.7 20.76 9.42 20.76 6c0-2.6-2.06-4.71-4.58-4.71-2.3 0-3.51 1.42-4.48 2.56l-.7.8-.69-.8C9.34 2.7 8.14 1.29 5.83 1.29A4.65 4.65 0 0 0 1.25 6z"/></defs><g><g><g><use fill="#e0e0e0" xlink:href="#4xwda"/></g></g></g></svg>