<svg xmlns="http://www.w3.org/2000/svg" xmlns:xlink="http://www.w3.org/1999/xlink" width="20" height="20" viewBox="0 0 20 20"><defs><path id="3j6da" d="M9.85.15c5.46 0 9.85 4.4 9.85 9.85 0 5.46-4.4 9.85-9.85 9.85A9.83 9.83 0 0 1 0 10C0 4.54 4.4.15 9.85.15zm8.7 9.92c0-4.8-3.92-8.72-8.72-8.72a8.75 8.75 0 0 0-8.73 8.72c0 4.8 3.93 8.73 8.73 8.73 4.8 0 8.73-3.92 8.73-8.73z"/><path id="3j6db" d="M14.97 12.34c-.2-.08-.45-.04-.53.16a5.14 5.14 0 0 1-9.19 0c-.08-.2-.33-.29-.53-.16-.2.08-.29.33-.2.53a5.94 5.94 0 0 0 10.62 0c.12-.2.04-.45-.17-.53z"/><path id="3j6dc" d="M7.8 7.95a1.23 1.23 0 1 1-2.47 0 1.23 1.23 0 0 1 2.46 0z"/><path id="3j6dd" d="M14.36 7.95a1.23 1.23 0 1 1-2.46 0 1.23 1.23 0 0 1 2.46 0z"/></defs><g><g><g><use fill="#9e9e9e" xlink:href="#3j6da"/></g><g><use fill="#9e9e9e" xlink:href="#3j6db"/><use fill="#fff" fill-opacity="0" stroke="#9e9e9e" stroke-miterlimit="50" stroke-width=".3" xlink:href="#3j6db"/></g><g><use fill="#9e9e9e" xlink:href="#3j6dc"/></g><g><use fill="#9e9e9e" xlink:href="#3j6dd"/></g></g></g></svg>