<svg xmlns="http://www.w3.org/2000/svg" xmlns:xlink="http://www.w3.org/1999/xlink" width="19" height="30" viewBox="0 0 19 30"><defs><path id="h7yxa" d="M0 30v-2.57h19V30z"/><path id="h7yxb" d="M12.57 7.68c1.69 0 2.88.42 3.59 1.24.32.37.55.87.7 1.5.15.63.23 1.46.23 2.5v8.35c0 .58.05 1.02.17 1.35.11.32.3.54.55.67.25.13.6.2 1.05.2v.65c-2.28-.08-3.76-.12-4.44-.12-.74 0-2.25.04-4.52.12v-.65c.37 0 .66-.07.87-.2.2-.13.35-.35.45-.67.09-.33.14-.77.14-1.35V11.24c0-.66-.13-1.15-.38-1.47-.25-.32-.64-.47-1.18-.47a2.32 2.32 0 0 0-1.97 1.08c-.22.33-.33.7-.33 1.13v9.76c0 .58.05 1.02.14 1.35.1.32.25.54.45.67.21.13.5.2.87.2v.65a139.7 139.7 0 0 0-4.2-.12c-.73 0-2.32.04-4.76.12v-.65c.45 0 .8-.07 1.06-.2s.44-.35.56-.67c.1-.33.17-.77.17-1.35V3.71c0-.96-.14-1.65-.4-2.08C1.1 1.21.64 1 0 1V.35A29.02 29.02 0 0 0 7.5 0v10c.97-1.54 2.65-2.32 5.07-2.32z"/></defs><g><g><g><use fill="#333" xlink:href="#h7yxa"/></g><g><use fill="#333" xlink:href="#h7yxb"/></g></g></g></svg>