<svg xmlns="http://www.w3.org/2000/svg" xmlns:xlink="http://www.w3.org/1999/xlink" width="45" height="71" viewBox="0 0 45 71"><defs><path id="gpa6a" d="M490 311v-6.09h45V311z"/><path id="gpa6b" d="M519.76 258.19c4 0 6.84.97 8.5 2.92a8.29 8.29 0 0 1 1.68 3.55c.35 1.48.53 3.45.53 5.9v19.79c0 1.36.14 2.41.4 3.17.28.76.71 1.3 1.31 1.6.6.32 1.43.47 2.49.47v1.54c-5.4-.2-8.9-.29-10.53-.29-1.74 0-5.3.1-10.7.29v-1.54c.88 0 1.57-.15 2.06-.46.49-.31.84-.85 1.06-1.6.22-.77.33-1.82.33-3.18V266.6c0-1.57-.29-2.73-.88-3.48-.59-.74-1.52-1.12-2.8-1.12-.93 0-1.8.23-2.64.68a5.48 5.48 0 0 0-2.03 1.87c-.51.8-.77 1.7-.77 2.7v23.1c0 1.36.11 2.41.33 3.17.22.76.58 1.3 1.07 1.6.49.32 1.18.47 2.06.47v1.54c-5-.2-8.32-.29-9.93-.29-1.75 0-5.51.1-11.3.29v-1.54c1.05 0 1.89-.15 2.5-.46.62-.31 1.06-.85 1.33-1.6.27-.77.4-1.82.4-3.18v-41.58c0-2.26-.32-3.9-.96-4.9-.63-1.01-1.72-1.52-3.27-1.52v-1.53c1.57.14 3.13.21 4.67.21 5.28 0 9.64-.34 13.1-1.03v23.68c2.28-3.66 6.28-5.5 12-5.5z"/></defs><g><g transform="translate(-490 -240)"><use fill="#fff" xlink:href="#gpa6a"/></g><g transform="translate(-490 -240)"><use fill="#fff" xlink:href="#gpa6b"/></g></g></svg>