<svg id="SVGDoc" width="309" height="71" xmlns="http://www.w3.org/2000/svg" version="1.1" xmlns:xlink="http://www.w3.org/1999/xlink" xmlns:avocode="https://avocode.com/" viewBox="0 0 309 71"><defs><path d="M306,186v-6h30v6z" id="Path-0"/><path d="M55.98141,133.60969c3.82033,0 6.52733,0.96093 8.12109,2.88281c0.72657,0.86719 1.25976,2.0332 1.59961,3.49805c0.33984,1.46485 0.50977,3.40428 0.50977,5.81836v19.51172c0,1.33594 0.1289,2.3789 0.38671,3.1289c0.25782,0.75001 0.67383,1.27734 1.24805,1.58203c0.57422,0.30469 1.36523,0.45703 2.37305,0.45703v1.51172c-5.15628,-0.1875 -8.50781,-0.28125 -10.05469,-0.28125c-1.66407,0 -5.07419,0.09375 -10.23047,0.28125v-1.51172c0.84376,0 1.5,-0.15234 1.96875,-0.45703c0.46875,-0.30469 0.80859,-0.83202 1.01953,-1.58203c0.21094,-0.75 0.31641,-1.79296 0.31641,-3.1289v-23.41407c0,-1.54688 -0.28125,-2.68945 -0.84375,-3.42773c-0.5625,-0.73829 -1.45312,-1.10742 -2.67188,-1.10742c-0.89063,0 -1.73437,0.22265 -2.53125,0.66797c-0.79688,0.44531 -1.4414,1.06054 -1.93359,1.8457c-0.49219,0.78516 -0.73828,1.66992 -0.73828,2.6543v22.78125c0,1.33594 0.10547,2.3789 0.31641,3.1289c0.21093,0.75001 0.55077,1.27734 1.01953,1.58203c0.46875,0.30469 1.12499,0.45703 1.96875,0.45703v1.51172c-4.78128,-0.1875 -7.94531,-0.28125 -9.49219,-0.28125c-1.66407,0 -5.26169,0.09375 -10.79297,0.28125v-1.51172c1.00782,0 1.80468,-0.15234 2.39063,-0.45703c0.58594,-0.30469 1.00781,-0.83202 1.26562,-1.58203c0.25781,-0.75 0.38672,-1.79296 0.38672,-3.1289v-40.99219c0,-2.22658 -0.30469,-3.83789 -0.91406,-4.83399c-0.60938,-0.9961 -1.65234,-1.49414 -3.12891,-1.49414v-1.51172c1.50001,0.14063 2.98827,0.21094 4.46484,0.21094c5.03909,0 9.21092,-0.33984 12.51563,-1.01953v23.34375c2.1797,-3.60939 5.99997,-5.41406 11.46094,-5.41406zM111.38766,168.99445c0.60937,0.9961 1.65233,1.49414 3.1289,1.49414v1.51172c-1.50001,-0.14062 -2.98827,-0.21093 -4.46484,-0.21093c-5.03909,0 -9.21092,0.33984 -12.51563,1.01953v-5.20313c-2.17969,3.60939 -5.99997,5.41406 -11.46093,5.41406c-3.82034,0 -6.52734,-0.96092 -8.1211,-2.88281c-0.72656,-0.86719 -1.25976,-2.02734 -1.59961,-3.48047c-0.33984,-1.45313 -0.50976,-3.3867 -0.50976,-5.80078v-18.38672c0,-2.22657 -0.29883,-3.83788 -0.89649,-4.83398c-0.59766,-0.9961 -1.63476,-1.49414 -3.11133,-1.49414v-1.51172c1.50001,0.14062 2.98828,0.21094 4.46485,0.21094c4.96877,0 9.14061,-0.32813 12.51562,-0.98438v30.86719c0,1.54688 0.28125,2.68945 0.84375,3.42773c0.56251,0.73829 1.45312,1.10743 2.67188,1.10743c0.89063,0 1.73437,-0.22266 2.53125,-0.66797c0.79688,-0.44532 1.4414,-1.06055 1.93359,-1.84571c0.49219,-0.78516 0.73828,-1.66991 0.73828,-2.65429v-21.6211c0,-2.22657 -0.30468,-3.83788 -0.91406,-4.83398c-0.60938,-0.9961 -1.65234,-1.49414 -3.1289,-1.49414v-1.51172c1.5,0.14062 2.98827,0.21094 4.46484,0.21094c4.99221,0 9.16404,-0.32813 12.51562,-0.98438v30.30469c0,2.22657 0.30469,3.83788 0.91407,4.83398zM122.05758,164.93391c0.83203,1.96876 1.91015,3.5039 3.23437,4.60547c1.32423,1.10156 2.84179,1.65234 4.55274,1.65234c1.21875,0 2.2207,-0.33398 3.00586,-1.00195c0.78516,-0.66798 1.17773,-1.64648 1.17773,-2.93555c0,-1.33595 -0.27539,-2.53711 -0.82617,-3.60352c-0.55078,-1.06641 -1.22461,-2.01562 -2.02148,-2.84765c-0.79688,-0.83204 -2.07421,-2.04492 -3.83204,-3.63867c-2.03907,-1.87501 -3.58007,-3.36328 -4.62304,-4.46485c-1.04298,-1.10157 -1.93945,-2.38476 -2.68946,-3.84961c-0.75,-1.46485 -1.125,-3.08788 -1.125,-4.86914c0,-2.06251 0.62109,-3.8789 1.86329,-5.44922c1.24219,-1.57032 2.89452,-2.7832 4.95703,-3.63867c2.06251,-0.85547 4.30077,-1.2832 6.71484,-1.2832c1.89845,0 3.6621,0.20507 5.29102,0.61523c1.62891,0.41016 2.88866,0.86133 3.77929,1.35352c0.49219,0.28125 0.92578,0.42187 1.30078,0.42187c0.96095,0 1.5586,-0.77343 1.79297,-2.32031h1.44141c-0.1875,2.50783 -0.28125,6.832 -0.28125,12.97266h-1.44141c-0.375,-3.14064 -1.27147,-5.80663 -2.68945,-7.99805c-1.41798,-2.19142 -3.4746,-3.28711 -6.16992,-3.28711c-1.21876,0 -2.23242,0.36328 -3.04102,1.08984c-0.8086,0.72657 -1.21289,1.69922 -1.21289,2.91797c0,1.6172 0.53906,3.04101 1.61719,4.27149c1.07813,1.23047 2.3496,2.41405 3.81445,3.55078c1.46485,1.13672 2.53711,1.98632 3.2168,2.54883c1.78126,1.47657 3.19921,2.7539 4.25391,3.83203c1.05469,1.07813 1.90429,2.30273 2.54882,3.67383c0.64454,1.3711 0.9668,2.92382 0.9668,4.6582c0,2.13282 -0.65038,4.04882 -1.95117,5.74805c-1.30079,1.69922 -3.05858,3.01757 -5.27344,3.95507c-2.21485,0.93751 -4.64647,1.40625 -7.29492,1.40625c-3.00002,0 -5.47265,-0.60937 -7.41797,-1.82812c-1.54688,-0.79688 -2.7539,-1.19531 -3.62109,-1.19531c-0.91407,0 -1.58203,0.83202 -2.00391,2.49609h-1.44141c0.1875,-2.7422 0.28125,-7.53512 0.28125,-14.37891h1.44141c0.30469,2.57814 0.87304,4.85156 1.70508,6.82032zM179.55563,133.60969c3.82033,0 6.52733,0.96093 8.12109,2.88281c0.72656,0.86719 1.25976,2.0332 1.59961,3.49805c0.33984,1.46485 0.50976,3.40428 0.50976,5.81836v19.51172c0,1.33594 0.12891,2.3789 0.38672,3.1289c0.25782,0.75001 0.67383,1.27734 1.24805,1.58203c0.57422,0.30469 1.36523,0.45703 2.37305,0.45703v1.51172c-5.15628,-0.1875 -8.50781,-0.28125 -10.05469,-0.28125c-1.66407,0 -5.07419,0.09375 -10.23047,0.28125v-1.51172c0.84375,0 1.5,-0.15234 1.96875,-0.45703c0.46875,-0.30469 0.80859,-0.83202 1.01953,-1.58203c0.21094,-0.75 0.31641,-1.79296 0.31641,-3.1289v-23.41407c0,-1.54688 -0.28125,-2.68945 -0.84375,-3.42773c-0.56251,-0.73829 -1.45312,-1.10742 -2.67188,-1.10742c-0.89063,0 -1.73437,0.22265 -2.53125,0.66797c-0.79688,0.44531 -1.4414,1.06054 -1.93359,1.8457c-0.49219,0.78516 -0.73828,1.66992 -0.73828,2.6543v22.78125c0,1.33594 0.10547,2.3789 0.3164,3.1289c0.21094,0.75001 0.55078,1.27734 1.01954,1.58203c0.46875,0.30469 1.12499,0.45703 1.96875,0.45703v1.51172c-4.78128,-0.1875 -7.94531,-0.28125 -9.49219,-0.28125c-1.66407,0 -5.26169,0.09375 -10.79297,0.28125v-1.51172c1.00782,0 1.80468,-0.15234 2.39062,-0.45703c0.58594,-0.30469 1.00781,-0.83202 1.26563,-1.58203c0.25781,-0.75 0.38672,-1.79296 0.38672,-3.1289v-40.99219c0,-2.22658 -0.30469,-3.83789 -0.91406,-4.83399c-0.60938,-0.9961 -1.65234,-1.49414 -3.12891,-1.49414v-1.51172c1.50001,0.14063 2.98827,0.21094 4.46484,0.21094c5.03909,0 9.21092,-0.33984 12.51563,-1.01953v23.34375c2.1797,-3.60939 5.99997,-5.41406 11.46094,-5.41406zM212.04,117.26203c1.35938,1.05469 2.03906,2.60155 2.03906,4.64063c0,2.01563 -0.67968,3.55077 -2.03906,4.60547c-1.35938,1.05469 -3.29296,1.58203 -5.80078,1.58203c-2.5547,0 -4.49999,-0.52148 -5.83594,-1.56446c-1.33594,-1.04297 -2.0039,-2.58397 -2.0039,-4.62304c0,-2.03908 0.66796,-3.58594 2.0039,-4.64063c1.33595,-1.05469 3.28124,-1.58203 5.83594,-1.58203c2.50782,0 4.4414,0.52734 5.80078,1.58203zM213.48141,168.44953c0.25781,0.75001 0.67968,1.27734 1.26562,1.58203c0.58594,0.30469 1.38281,0.45703 2.39063,0.45703v1.51172c-5.15628,-0.1875 -8.5664,-0.28125 -10.23047,-0.28125c-1.66407,0 -5.26169,0.09375 -10.79297,0.28125v-1.51172c1.00782,0 1.80468,-0.15234 2.39062,-0.45703c0.58594,-0.30469 1.00781,-0.83202 1.26563,-1.58203c0.25781,-0.75 0.38672,-1.79296 0.38672,-3.1289v-22.85157c0,-2.22657 -0.30469,-3.83788 -0.91406,-4.83398c-0.60938,-0.9961 -1.65234,-1.49414 -3.12891,-1.49414v-1.51172c1.52344,0.14062 3.01171,0.21094 4.46484,0.21094c4.99221,0 9.16405,-0.32813 12.51563,-0.98438v31.46485c0,1.33594 0.1289,2.3789 0.38672,3.1289zM248.32125,133.60969c3.82033,0 6.52734,0.96093 8.12109,2.88281c0.72657,0.86719 1.25977,2.0332 1.59961,3.49805c0.33985,1.46485 0.50977,3.40428 0.50977,5.81836v19.51172c0,1.33594 0.1289,2.3789 0.38672,3.1289c0.25781,0.75001 0.67382,1.27734 1.24804,1.58203c0.57423,0.30469 1.36523,0.45703 2.37305,0.45703v1.51172c-5.15627,-0.1875 -8.5078,-0.28125 -10.05469,-0.28125c-1.66407,0 -5.07419,0.09375 -10.23046,0.28125v-1.51172c0.84375,0 1.49999,-0.15234 1.96875,-0.45703c0.46875,-0.30469 0.80859,-0.82617 1.01953,-1.56445c0.21093,-0.73829 0.3164,-1.7871 0.3164,-3.14648v-23.41407c0,-1.54688 -0.28124,-2.68945 -0.84375,-3.42773c-0.5625,-0.73829 -1.45312,-1.10742 -2.67187,-1.10742c-0.89063,0 -1.73437,0.22265 -2.53125,0.66797c-0.79688,0.44531 -1.44141,1.06054 -1.9336,1.8457c-0.49219,0.78516 -0.73828,1.66992 -0.73828,2.6543v22.78125c0,1.33594 0.10547,2.3789 0.31641,3.1289c0.21094,0.75001 0.55664,1.27734 1.03711,1.58203c0.48047,0.30469 1.14257,0.45703 1.98633,0.45703v1.51172c-4.87503,-0.1875 -8.05078,-0.28125 -9.52735,-0.28125c-1.66407,0 -5.26169,0.09375 -10.79297,0.28125v-1.51172c1.00782,0 1.80469,-0.15234 2.39063,-0.45703c0.58594,-0.30469 1.00781,-0.83202 1.26562,-1.58203c0.25782,-0.75 0.38672,-1.79296 0.38672,-3.1289v-22.85157c0,-2.22657 -0.30468,-3.83788 -0.91406,-4.83398c-0.60938,-0.9961 -1.65234,-1.49414 -3.12891,-1.49414v-1.51172c1.52345,0.14062 3.01172,0.21094 4.46485,0.21094c4.99221,0 9.16404,-0.32813 12.51562,-0.98438v5.16797c2.1797,-3.60939 5.99998,-5.41406 11.46094,-5.41406zM300.10641,163.8968c1.94532,1.32422 2.91797,3.47459 2.91797,6.45117c0,2.5547 -0.79687,4.99217 -2.39063,7.3125c-1.59376,2.32032 -3.99022,4.21288 -7.18945,5.67773c-3.19924,1.46485 -7.1074,2.19727 -11.72461,2.19727c-4.14846,0 -7.48241,-0.28711 -10.00196,-0.86133c-2.51954,-0.57422 -4.30077,-1.30664 -5.34375,-2.19726c-1.04297,-0.89063 -1.56445,-1.86328 -1.56445,-2.91797c0,-1.31251 0.47461,-2.18555 1.42383,-2.61914c0.94922,-0.4336 2.70702,-0.79102 5.27344,-1.07227c2.56642,-0.28125 4.2832,-0.94921 5.15039,-2.00391h-2.35547c-1.21876,0 -2.47851,-0.20507 -3.7793,-0.61523c-1.30079,-0.41016 -2.43163,-1.17187 -3.39258,-2.28516c-0.96094,-1.11328 -1.4414,-2.64257 -1.4414,-4.58789c0,-1.59376 0.29882,-2.98827 0.89648,-4.18359c0.59766,-1.19532 1.56445,-2.31445 2.90039,-3.35742c1.33595,-1.04298 3.17577,-2.11523 5.51953,-3.2168c-2.76564,-0.84375 -4.916,-2.13866 -6.45117,-3.88477c-1.53516,-1.7461 -2.30273,-3.94334 -2.30273,-6.59179c0,-2.5547 0.72069,-4.69335 2.16211,-6.41602c1.44141,-1.72266 3.42772,-3.00585 5.95898,-3.84961c2.53126,-0.84375 5.46092,-1.26562 8.78906,-1.26562c1.52345,0 2.96484,0.09375 4.32422,0.28125c-0.04687,-0.49219 -0.07031,-0.98438 -0.07031,-1.47656c0,-2.85939 0.67382,-5.16211 2.02148,-6.90821c1.34767,-1.7461 3.38085,-2.61914 6.09961,-2.61914c1.78126,0 3.26367,0.42773 4.44727,1.2832c1.1836,0.85548 1.77539,2.0332 1.77539,3.53321c0,0.89063 -0.26367,1.69335 -0.79102,2.4082c-0.52734,0.71485 -1.23632,1.27734 -2.12695,1.6875c-0.89063,0.41016 -1.88671,0.61524 -2.98828,0.61524c-1.64063,0 -2.95898,-0.31055 -3.95508,-0.93165c-0.9961,-0.62109 -1.82226,-1.56444 -2.47851,-2.83007c-0.32813,0.96094 -0.49219,2.21483 -0.49219,3.76172c0,0.5625 0.03515,1.12499 0.10547,1.6875c3.44533,0.65625 6.14647,1.91014 8.10351,3.76171c1.95704,1.85158 2.93555,4.27733 2.93555,7.27735c0,2.5547 -0.7207,4.69335 -2.16211,6.41601c-1.44141,1.72267 -3.42772,3.00586 -5.95898,3.84961c-2.53127,0.84376 -5.46092,1.26563 -8.78907,1.26563c-2.50782,0 -4.78124,-0.23438 -6.82031,-0.70313c-1.00782,0.65626 -1.72851,1.24219 -2.16211,1.75782c-0.43359,0.51562 -0.65039,1.12499 -0.65039,1.82812c0,1.57032 0.85546,2.35547 2.56641,2.35547h16.34765c3.16408,0 5.71874,0.6621 7.66407,1.98633zM280.43648,137.26594c-0.62109,1.57032 -0.93164,4.19529 -0.93164,7.875c0,3.70314 0.31055,6.33397 0.93164,7.89258c0.6211,1.5586 1.5293,2.33789 2.72461,2.33789c1.21876,0 2.13867,-0.77929 2.75977,-2.33789c0.6211,-1.55861 0.93164,-4.18944 0.93164,-7.89258c0,-3.70315 -0.31054,-6.33398 -0.93164,-7.89258c-0.6211,-1.5586 -1.54101,-2.33789 -2.75977,-2.33789c-1.19531,0 -2.10351,0.78515 -2.72461,2.35547zM277.39547,176.2718c-0.14063,0.90235 -0.21094,1.6582 -0.21094,2.26758c0,1.82813 0.55078,3.24608 1.65235,4.2539c1.10156,1.00782 2.71873,1.51172 4.85156,1.51172c1.85157,0 3.48046,-0.33984 4.88672,-1.01953c1.40625,-0.67969 2.50195,-1.63476 3.28711,-2.86524c0.78516,-1.23047 1.17773,-2.64257 1.17773,-4.23632c0,-0.77345 -0.25195,-1.35352 -0.75586,-1.74024c-0.50391,-0.38672 -1.35351,-0.58008 -2.54883,-0.58008h-11.63672c-0.32812,0.70313 -0.5625,1.50586 -0.70312,2.40821zM309.93258,164.93391c0.83203,1.96876 1.91015,3.5039 3.23437,4.60547c1.32423,1.10156 2.84179,1.65234 4.55274,1.65234c1.21875,0 2.2207,-0.33398 3.00586,-1.00195c0.78516,-0.66798 1.17773,-1.64648 1.17773,-2.93555c0,-1.33595 -0.27539,-2.53711 -0.82617,-3.60352c-0.55078,-1.06641 -1.22461,-2.01562 -2.02148,-2.84765c-0.79688,-0.83204 -2.07421,-2.04492 -3.83204,-3.63867c-2.03907,-1.87501 -3.58007,-3.36328 -4.62304,-4.46485c-1.04298,-1.10157 -1.93945,-2.38476 -2.68946,-3.84961c-0.75,-1.46485 -1.125,-3.08788 -1.125,-4.86914c0,-2.06251 0.62109,-3.8789 1.86329,-5.44922c1.24219,-1.57032 2.89452,-2.7832 4.95703,-3.63867c2.06251,-0.85547 4.30077,-1.2832 6.71484,-1.2832c1.89845,0 3.6621,0.20507 5.29102,0.61523c1.62891,0.41016 2.88866,0.86133 3.77929,1.35352c0.49219,0.28125 0.92578,0.42187 1.30078,0.42187c0.96095,0 1.5586,-0.77343 1.79297,-2.32031h1.44141c-0.1875,2.50783 -0.28125,6.832 -0.28125,12.97266h-1.44141c-0.375,-3.14064 -1.27147,-5.80663 -2.68945,-7.99805c-1.41798,-2.19142 -3.4746,-3.28711 -6.16992,-3.28711c-1.21876,0 -2.23242,0.36328 -3.04102,1.08984c-0.8086,0.72657 -1.21289,1.69922 -1.21289,2.91797c0,1.6172 0.53906,3.04101 1.61719,4.27149c1.07813,1.23047 2.3496,2.41405 3.81445,3.55078c1.46485,1.13672 2.53711,1.98632 3.2168,2.54883c1.78126,1.47657 3.19921,2.7539 4.25391,3.83203c1.05469,1.07813 1.90429,2.30273 2.54882,3.67383c0.64454,1.3711 0.9668,2.92382 0.9668,4.6582c0,2.13282 -0.65038,4.04882 -1.95117,5.74805c-1.30079,1.69922 -3.05858,3.01757 -5.27344,3.95507c-2.21485,0.93751 -4.64647,1.40625 -7.29492,1.40625c-3.00002,0 -5.47265,-0.60937 -7.41797,-1.82812c-1.54688,-0.79688 -2.7539,-1.19531 -3.62109,-1.19531c-0.91407,0 -1.58203,0.83202 -2.00391,2.49609h-1.44141c0.1875,-2.7422 0.28125,-7.53512 0.28125,-14.37891h1.44141c0.30469,2.57814 0.87304,4.85156 1.70508,6.82032z" id="Path-1"/></defs><desc>Generated with Avocode.</desc><g transform="matrix(1,0,0,1,-27,-115)"><g><title>underline</title><use xlink:href="#Path-0" fill="#ffffff" fill-opacity="1"/></g><g><title>hushings</title><use xlink:href="#Path-1" fill="#ffffff" fill-opacity="1"/></g></g></svg>